# xmcd
#
# Track frame offsets: 
#        183
#        16185
#        45670
#
# Disc length: 843 seconds
#
# Revision: 8
# Processed by: cddbd v1.5.2PL0 Copyright (c) Steve Scherf et al.
# Submitted via: ExactAudioCopy v0.95b4
#
DISCID=15034903,18034903
DTITLE=Sydney Youngblood - If Only I Could
DYEAR=1989
DGENRE=Euro-House
TTITLE0=If Only I Could (Radio Edit)
TTITLE1=If Only I Could (Extended Version)
TTITLE2=Spooky
EXTD=
EXTT0=
EXTT1=
EXTT2=
PLAYORDER=
